<svg xmlns="http://www.w3.org/2000/svg" viewBox="0 0 800 1000" preserveAspectRatio="xMidYMid slice" role="img" aria-label="Platzhalter"><defs><filter id="b"><feGaussianBlur stdDeviation="28"/></filter></defs><rect width="800" height="1000" fill="#eef0f6"/><g filter="url(#b)" opacity=".85"><ellipse cx="243" cy="606" rx="299" ry="232" fill="#1f2fb8" opacity="0.48"/><ellipse cx="618" cy="485" rx="320" ry="463" fill="#f2b134" opacity="0.37"/><ellipse cx="13" cy="930" rx="374" ry="406" fill="#e8557a" opacity="0.44"/><ellipse cx="239" cy="196" rx="343" ry="406" fill="#1f2fb8" opacity="0.54"/></g><path d="M406 654 C154 237 650 155 535 399" fill="none" stroke="#e8557a" stroke-width="20" stroke-linecap="round" opacity="0.77"/><path d="M65 163 C776 980 605 43 308 798" fill="none" stroke="#1f2fb8" stroke-width="37" stroke-linecap="round" opacity="0.69"/><path d="M736 942 C396 731 437 404 745 820" fill="none" stroke="#e8557a" stroke-width="48" stroke-linecap="round" opacity="0.89"/><path d="M137 899 C374 99 36 139 506 222" fill="none" stroke="#f2b134" stroke-width="63" stroke-linecap="round" opacity="0.67"/><path d="M641 875 C308 431 519 853 395 587" fill="none" stroke="#f2b134" stroke-width="54" stroke-linecap="round" opacity="0.73"/><path d="M598 237 C344 698 29 876 286 620" fill="none" stroke="#e8557a" stroke-width="64" stroke-linecap="round" opacity="0.57"/><path d="M334 987 C554 926 585 582 106 730" fill="none" stroke="#e8557a" stroke-width="33" stroke-linecap="round" opacity="0.75"/></svg>