<svg xmlns="http://www.w3.org/2000/svg" viewBox="0 0 1200 900" preserveAspectRatio="xMidYMid slice" role="img" aria-label="Platzhalter"><defs><filter id="b"><feGaussianBlur stdDeviation="42"/></filter></defs><rect width="1200" height="900" fill="#eff2f9"/><g filter="url(#b)" opacity=".85"><ellipse cx="784" cy="859" rx="538" ry="243" fill="#2437c9" opacity="0.43"/><ellipse cx="342" cy="198" rx="326" ry="196" fill="#7fd0c4" opacity="0.60"/><ellipse cx="309" cy="825" rx="385" ry="156" fill="#f2b134" opacity="0.50"/><ellipse cx="236" cy="28" rx="504" ry="236" fill="#2437c9" opacity="0.69"/></g><path d="M623 511 C174 703 520 863 322 697" fill="none" stroke="#7fd0c4" stroke-width="69" stroke-linecap="round" opacity="0.53"/><path d="M751 676 C68 218 647 347 142 318" fill="none" stroke="#2437c9" stroke-width="61" stroke-linecap="round" opacity="0.77"/><path d="M313 838 C1002 880 581 272 1151 760" fill="none" stroke="#7fd0c4" stroke-width="55" stroke-linecap="round" opacity="0.54"/><path d="M1012 803 C315 668 293 332 982 202" fill="none" stroke="#f2b134" stroke-width="46" stroke-linecap="round" opacity="0.69"/><path d="M531 521 C462 544 496 86 279 267" fill="none" stroke="#7fd0c4" stroke-width="99" stroke-linecap="round" opacity="0.76"/><path d="M801 211 C626 413 136 480 742 851" fill="none" stroke="#7fd0c4" stroke-width="62" stroke-linecap="round" opacity="0.81"/><path d="M1176 845 C890 349 509 380 69 59" fill="none" stroke="#7fd0c4" stroke-width="70" stroke-linecap="round" opacity="0.68"/></svg>