<svg xmlns="http://www.w3.org/2000/svg" viewBox="0 0 1000 800" preserveAspectRatio="xMidYMid slice" role="img" aria-label="Platzhalter"><defs><filter id="b"><feGaussianBlur stdDeviation="35"/></filter></defs><rect width="1000" height="800" fill="#f1f5f4"/><g filter="url(#b)" opacity=".85"><ellipse cx="971" cy="115" rx="485" ry="372" fill="#0f6f73" opacity="0.58"/><ellipse cx="773" cy="344" rx="447" ry="278" fill="#f6d27a" opacity="0.41"/><ellipse cx="969" cy="461" rx="322" ry="246" fill="#2437c9" opacity="0.68"/><ellipse cx="282" cy="492" rx="321" ry="218" fill="#0f6f73" opacity="0.53"/></g><path d="M478 116 C96 673 177 761 823 120" fill="none" stroke="#f6d27a" stroke-width="42" stroke-linecap="round" opacity="0.66"/><path d="M80 16 C885 703 595 565 432 530" fill="none" stroke="#f6d27a" stroke-width="78" stroke-linecap="round" opacity="0.73"/><path d="M972 370 C901 111 25 177 223 655" fill="none" stroke="#0f6f73" stroke-width="64" stroke-linecap="round" opacity="0.81"/><path d="M681 800 C877 553 889 628 381 533" fill="none" stroke="#2437c9" stroke-width="33" stroke-linecap="round" opacity="0.58"/><path d="M359 620 C848 577 968 708 546 45" fill="none" stroke="#f6d27a" stroke-width="36" stroke-linecap="round" opacity="0.65"/><path d="M570 446 C688 283 683 726 240 386" fill="none" stroke="#f6d27a" stroke-width="52" stroke-linecap="round" opacity="0.90"/><path d="M950 378 C608 612 599 687 288 513" fill="none" stroke="#2437c9" stroke-width="49" stroke-linecap="round" opacity="0.70"/></svg>