<svg xmlns="http://www.w3.org/2000/svg" viewBox="0 0 1000 1000" preserveAspectRatio="xMidYMid slice" role="img" aria-label="Platzhalter"><defs><filter id="b"><feGaussianBlur stdDeviation="35"/></filter></defs><rect width="1000" height="1000" fill="#f7f1f3"/><g filter="url(#b)" opacity=".85"><ellipse cx="928" cy="188" rx="223" ry="174" fill="#e8557a" opacity="0.43"/><ellipse cx="250" cy="85" rx="409" ry="419" fill="#2437c9" opacity="0.40"/><ellipse cx="130" cy="780" rx="245" ry="466" fill="#f8c8a8" opacity="0.45"/><ellipse cx="442" cy="102" rx="343" ry="476" fill="#e8557a" opacity="0.52"/></g><path d="M652 585 C116 642 885 290 992 800" fill="none" stroke="#2437c9" stroke-width="48" stroke-linecap="round" opacity="0.69"/><path d="M437 311 C95 252 623 328 716 200" fill="none" stroke="#f8c8a8" stroke-width="65" stroke-linecap="round" opacity="0.69"/><path d="M217 612 C700 792 237 704 36 522" fill="none" stroke="#2437c9" stroke-width="74" stroke-linecap="round" opacity="0.81"/><path d="M586 794 C363 257 270 641 954 587" fill="none" stroke="#f8c8a8" stroke-width="49" stroke-linecap="round" opacity="0.64"/><path d="M135 556 C516 536 76 982 107 148" fill="none" stroke="#2437c9" stroke-width="82" stroke-linecap="round" opacity="0.51"/><path d="M850 458 C161 376 967 905 585 361" fill="none" stroke="#e8557a" stroke-width="43" stroke-linecap="round" opacity="0.77"/><path d="M39 926 C25 466 504 18 528 456" fill="none" stroke="#f8c8a8" stroke-width="75" stroke-linecap="round" opacity="0.76"/></svg>